<svg xmlns="http://www.w3.org/2000/svg" viewBox="0 0 64 64" role="img" aria-label="merge-pdf favicon">
  <defs>
    <linearGradient id="g" x1="0" y1="0" x2="1" y2="1">
      <stop offset="0%" stop-color="hsl(198, 88%, 56%)"/>
      <stop offset="100%" stop-color="hsl(240, 88%, 53%)"/>
    </linearGradient>
  </defs>
  <rect width="64" height="64" rx="14" fill="#0b1b31"/>
  <rect x="4" y="4" width="56" height="56" rx="12" fill="url(#g)"/>
  <rect x="8" y="8" width="48" height="38" rx="10" fill="rgba(9,23,44,0.26)"/>
  <path d="M22 16h14l6 6v18a4 4 0 0 1-4 4H22a4 4 0 0 1-4-4V20a4 4 0 0 1 4-4z" fill="#fff"/><path d="M36 16v8h8" fill="none" stroke="#15325b" stroke-width="2"/><path d="M23 36h16" stroke="#15325b" stroke-width="2.2"/><path d="M23 31h11" stroke="#15325b" stroke-width="2.2"/>
  <rect x="14" y="47" width="36" height="11" rx="5.5" fill="#ffffff"/>
  <text x="32" y="55.5" text-anchor="middle" fill="#10294a" font-size="12" font-family="Segoe UI, Arial, sans-serif" font-weight="900" letter-spacing="0.4">MP</text>
</svg>