<svg xmlns="http://www.w3.org/2000/svg" viewBox="0 0 64 64" role="img" aria-label="what is my ip address favicon">
  <defs>
    <linearGradient id="ip-bg" x1="0" y1="0" x2="1" y2="1">
      <stop offset="0%" stop-color="#11b5d8"/>
      <stop offset="100%" stop-color="#1266d8"/>
    </linearGradient>
    <linearGradient id="ip-accent" x1="0" y1="0" x2="1" y2="1">
      <stop offset="0%" stop-color="#ffe782"/>
      <stop offset="100%" stop-color="#8dff69"/>
    </linearGradient>
  </defs>
  <rect width="64" height="64" rx="16" fill="#071521"/>
  <rect x="4" y="4" width="56" height="56" rx="13" fill="url(#ip-bg)"/>
  <circle cx="32" cy="32" r="17" fill="none" stroke="#ffffff" stroke-width="4.2"/>
  <path d="M15 32h34M32 15c5.5 5.5 5.5 28.5 0 34M32 15c-5.5 5.5-5.5 28.5 0 34M20 24c7 4 17 4 24 0M20 40c7-4 17-4 24 0" fill="none" stroke="#ffffff" stroke-linecap="round" stroke-width="2.5"/>
  <circle cx="45" cy="20" r="5.4" fill="url(#ip-accent)"/>
  <circle cx="45" cy="20" r="2.2" fill="#08305a"/>
</svg>
