<svg xmlns="http://www.w3.org/2000/svg" viewBox="0 0 64 64" role="img" aria-label="find-replace-text favicon">
  <defs>
    <linearGradient id="g" x1="0" y1="0" x2="1" y2="1">
      <stop offset="0%" stop-color="hsl(179, 88%, 56%)"/>
      <stop offset="100%" stop-color="hsl(221, 88%, 53%)"/>
    </linearGradient>
  </defs>
  <rect width="64" height="64" rx="14" fill="#0b1b31"/>
  <rect x="4" y="4" width="56" height="56" rx="12" fill="url(#g)"/>
  <rect x="8" y="8" width="48" height="38" rx="10" fill="rgba(9,23,44,0.26)"/>
  <path d="M24 18h-5v4h3v20h-3v4h5c2 0 3-1 3-3V21c0-2-1-3-3-3zm16 0h5v4h-3v20h3v4h-5c-2 0-3-1-3-3V21c0-2 1-3 3-3z" fill="#ffffff"/>
  <rect x="14" y="47" width="36" height="11" rx="5.5" fill="#ffffff"/>
  <text x="32" y="55.5" text-anchor="middle" fill="#10294a" font-size="12" font-family="Segoe UI, Arial, sans-serif" font-weight="900" letter-spacing="0.4">FR</text>
</svg>